<svg width="148" height="30" viewBox="0 0 148 30" fill="none" xmlns="http://www.w3.org/2000/svg">
<circle cx="15" cy="15" r="15" fill="#121212"/>
<path d="M43.262 18.152H46.398V20H40.868V10.172H43.262V18.152ZM55.9039 15.968C55.9039 16.192 55.8899 16.4253 55.8619 16.668H50.4439C50.4812 17.1533 50.6352 17.5267 50.9059 17.788C51.1859 18.04 51.5265 18.166 51.9279 18.166C52.5252 18.166 52.9405 17.914 53.1739 17.41H55.7219C55.5912 17.9233 55.3532 18.3853 55.0079 18.796C54.6719 19.2067 54.2472 19.5287 53.7339 19.762C53.2205 19.9953 52.6465 20.112 52.0119 20.112C51.2465 20.112 50.5652 19.9487 49.9679 19.622C49.3705 19.2953 48.9039 18.8287 48.5679 18.222C48.2319 17.6153 48.0639 16.906 48.0639 16.094C48.0639 15.282 48.2272 14.5727 48.5539 13.966C48.8899 13.3593 49.3565 12.8927 49.9539 12.566C50.5512 12.2393 51.2372 12.076 52.0119 12.076C52.7679 12.076 53.4399 12.2347 54.0279 12.552C54.6159 12.8693 55.0732 13.322 55.3999 13.91C55.7359 14.498 55.9039 15.184 55.9039 15.968ZM53.4539 15.338C53.4539 14.9273 53.3139 14.6007 53.0339 14.358C52.7539 14.1153 52.4039 13.994 51.9839 13.994C51.5825 13.994 51.2419 14.1107 50.9619 14.344C50.6912 14.5773 50.5232 14.9087 50.4579 15.338H53.4539ZM57.6908 16.08C57.6908 15.2773 57.8402 14.5727 58.1388 13.966C58.4468 13.3593 58.8622 12.8927 59.3848 12.566C59.9075 12.2393 60.4908 12.076 61.1348 12.076C61.6855 12.076 62.1662 12.188 62.5768 12.412C62.9968 12.636 63.3188 12.93 63.5428 13.294V12.188H65.9368V20H63.5428V18.894C63.3095 19.258 62.9828 19.552 62.5628 19.776C62.1522 20 61.6715 20.112 61.1208 20.112C60.4862 20.112 59.9075 19.9487 59.3848 19.622C58.8622 19.286 58.4468 18.8147 58.1388 18.208C57.8402 17.592 57.6908 16.8827 57.6908 16.08ZM63.5428 16.094C63.5428 15.4967 63.3748 15.0253 63.0388 14.68C62.7122 14.3347 62.3108 14.162 61.8348 14.162C61.3588 14.162 60.9528 14.3347 60.6168 14.68C60.2902 15.016 60.1268 15.4827 60.1268 16.08C60.1268 16.6773 60.2902 17.1533 60.6168 17.508C60.9528 17.8533 61.3588 18.026 61.8348 18.026C62.3108 18.026 62.7122 17.8533 63.0388 17.508C63.3748 17.1627 63.5428 16.6913 63.5428 16.094ZM71.0628 13.49C71.3428 13.0607 71.6928 12.7247 72.1128 12.482C72.5328 12.23 72.9995 12.104 73.5128 12.104V14.638H72.8548C72.2575 14.638 71.8095 14.7687 71.5108 15.03C71.2121 15.282 71.0628 15.73 71.0628 16.374V20H68.6688V12.188H71.0628V13.49ZM80.4171 12.104C81.3317 12.104 82.0597 12.4027 82.6011 13C83.1517 13.588 83.4271 14.4 83.4271 15.436V20H81.0471V15.758C81.0471 15.2353 80.9117 14.8293 80.6411 14.54C80.3704 14.2507 80.0064 14.106 79.5491 14.106C79.0917 14.106 78.7277 14.2507 78.4571 14.54C78.1864 14.8293 78.0511 15.2353 78.0511 15.758V20H75.6571V12.188H78.0511V13.224C78.2937 12.8787 78.6204 12.608 79.0311 12.412C79.4417 12.2067 79.9037 12.104 80.4171 12.104ZM87.2947 11.376C86.8747 11.376 86.5293 11.2547 86.2587 11.012C85.9973 10.76 85.8667 10.452 85.8667 10.088C85.8667 9.71467 85.9973 9.40667 86.2587 9.164C86.5293 8.912 86.8747 8.786 87.2947 8.786C87.7053 8.786 88.0413 8.912 88.3027 9.164C88.5733 9.40667 88.7087 9.71467 88.7087 10.088C88.7087 10.452 88.5733 10.76 88.3027 11.012C88.0413 11.2547 87.7053 11.376 87.2947 11.376ZM88.4847 12.188V20H86.0907V12.188H88.4847ZM95.9796 12.104C96.8942 12.104 97.6222 12.4027 98.1636 13C98.7142 13.588 98.9896 14.4 98.9896 15.436V20H96.6096V15.758C96.6096 15.2353 96.4742 14.8293 96.2036 14.54C95.9329 14.2507 95.5689 14.106 95.1116 14.106C94.6542 14.106 94.2902 14.2507 94.0196 14.54C93.7489 14.8293 93.6136 15.2353 93.6136 15.758V20H91.2196V12.188H93.6136V13.224C93.8562 12.8787 94.1829 12.608 94.5936 12.412C95.0042 12.2067 95.4662 12.104 95.9796 12.104ZM104.621 12.076C105.172 12.076 105.652 12.188 106.063 12.412C106.483 12.636 106.805 12.93 107.029 13.294V12.188H109.423V19.986C109.423 20.7047 109.278 21.3533 108.989 21.932C108.709 22.52 108.275 22.9867 107.687 23.332C107.108 23.6773 106.385 23.85 105.517 23.85C104.36 23.85 103.422 23.5747 102.703 23.024C101.984 22.4827 101.574 21.7453 101.471 20.812H103.837C103.912 21.1107 104.089 21.344 104.369 21.512C104.649 21.6893 104.994 21.778 105.405 21.778C105.9 21.778 106.292 21.6333 106.581 21.344C106.88 21.064 107.029 20.6113 107.029 19.986V18.88C106.796 19.244 106.474 19.5427 106.063 19.776C105.652 20 105.172 20.112 104.621 20.112C103.977 20.112 103.394 19.9487 102.871 19.622C102.348 19.286 101.933 18.8147 101.625 18.208C101.326 17.592 101.177 16.8827 101.177 16.08C101.177 15.2773 101.326 14.5727 101.625 13.966C101.933 13.3593 102.348 12.8927 102.871 12.566C103.394 12.2393 103.977 12.076 104.621 12.076ZM107.029 16.094C107.029 15.4967 106.861 15.0253 106.525 14.68C106.198 14.3347 105.797 14.162 105.321 14.162C104.845 14.162 104.439 14.3347 104.103 14.68C103.776 15.016 103.613 15.4827 103.613 16.08C103.613 16.6773 103.776 17.1533 104.103 17.508C104.439 17.8533 104.845 18.026 105.321 18.026C105.797 18.026 106.198 17.8533 106.525 17.508C106.861 17.1627 107.029 16.6913 107.029 16.094ZM118.273 18.264H114.605L114.017 20H111.511L115.067 10.172H117.839L121.395 20H118.861L118.273 18.264ZM117.657 16.416L116.439 12.818L115.235 16.416H117.657ZM129.427 14.96C129.997 15.0813 130.454 15.366 130.799 15.814C131.145 16.2527 131.317 16.7567 131.317 17.326C131.317 18.1473 131.028 18.8007 130.449 19.286C129.88 19.762 129.082 20 128.055 20H123.477V10.172H127.901C128.9 10.172 129.679 10.4007 130.239 10.858C130.809 11.3153 131.093 11.936 131.093 12.72C131.093 13.2987 130.939 13.7793 130.631 14.162C130.333 14.5447 129.931 14.8107 129.427 14.96ZM125.871 14.148H127.439C127.831 14.148 128.13 14.064 128.335 13.896C128.55 13.7187 128.657 13.462 128.657 13.126C128.657 12.79 128.55 12.5333 128.335 12.356C128.13 12.1787 127.831 12.09 127.439 12.09H125.871V14.148ZM127.635 18.068C128.037 18.068 128.345 17.9793 128.559 17.802C128.783 17.6153 128.895 17.3493 128.895 17.004C128.895 16.6587 128.779 16.388 128.545 16.192C128.321 15.996 128.009 15.898 127.607 15.898H125.871V18.068H127.635ZM133.3 15.072C133.3 14.1013 133.51 13.238 133.93 12.482C134.35 11.7167 134.933 11.124 135.68 10.704C136.436 10.2747 137.29 10.06 138.242 10.06C139.409 10.06 140.407 10.368 141.238 10.984C142.069 11.6 142.624 12.44 142.904 13.504H140.272C140.076 13.0933 139.796 12.7807 139.432 12.566C139.077 12.3513 138.671 12.244 138.214 12.244C137.477 12.244 136.879 12.5007 136.422 13.014C135.965 13.5273 135.736 14.2133 135.736 15.072C135.736 15.9307 135.965 16.6167 136.422 17.13C136.879 17.6433 137.477 17.9 138.214 17.9C138.671 17.9 139.077 17.7927 139.432 17.578C139.796 17.3633 140.076 17.0507 140.272 16.64H142.904C142.624 17.704 142.069 18.544 141.238 19.16C140.407 19.7667 139.409 20.07 138.242 20.07C137.29 20.07 136.436 19.86 135.68 19.44C134.933 19.0107 134.35 18.418 133.93 17.662C133.51 16.906 133.3 16.0427 133.3 15.072Z" fill="#121212"/>
<path fill-rule="evenodd" clip-rule="evenodd" d="M16.1566 5.28024L24.2077 9.7531C25.2641 10.34 25.2641 11.66 24.2077 12.2469L22.8521 13L24.2077 13.7531C25.2641 14.34 25.2641 15.66 24.2077 16.2469L22.8521 17L24.2077 17.7531C25.2641 18.34 25.2641 19.66 24.2077 20.2469L16.1566 24.7198C15.484 25.0934 14.516 25.0934 13.8434 24.7198L5.79227 20.2469C4.73591 19.66 4.73591 18.34 5.79227 17.7531L7.14785 17L5.79227 16.2469C4.73591 15.66 4.73591 14.34 5.79227 13.7531L7.14785 13L5.79227 12.2469C4.73591 11.66 4.73591 10.34 5.79227 9.7531L13.8434 5.28024C14.516 4.90659 15.484 4.90659 16.1566 5.28024ZM16.1566 16.7198L20.793 14.144L22.3339 15L20.793 15.856L18.7339 17L15.1853 18.9714C15.1168 19.0095 14.8832 19.0095 14.8147 18.9714L11.2661 17L9.20698 15.856L7.6661 15L9.20698 14.144L13.8434 16.7198C14.516 17.0934 15.484 17.0934 16.1566 16.7198ZM9.20698 18.144L7.6661 19L14.8147 22.9714C14.8832 23.0095 15.1168 23.0095 15.1853 22.9714L22.3339 19L20.793 18.144L16.1566 20.7198C15.484 21.0934 14.516 21.0934 13.8434 20.7198L9.20698 18.144ZM14.8147 7.02855C14.8832 6.99048 15.1168 6.99048 15.1853 7.02855L22.3339 11L15.1853 14.9714C15.1168 15.0095 14.8832 15.0095 14.8147 14.9714L7.6661 11L14.8147 7.02855Z" fill="white"/>
</svg>
